# xmcd
#
# Track frame offsets:
#       150
#       15132
#       30143
#       46171
#       61889
#       73612
#       89440
#       104943
#       119299
#       134241
#       152294
#       168818
#       181356
#       192900
#       210750
#       225045
#       237809
#       249275
#       261940
#       278903
#
# Disc length: 3932 seconds
#
# Revision: 0
# Processed by: cddbd v1.5.2PL0 Copyright (c) Steve Scherf et al.
# Submitted via: WaveLab 6.11
#
DISCID=f80f5a14
DTITLE=Baldo - Donne moi ton amour
DYEAR=2014
DGENRE=variéte
TTITLE0=Donne moi ton amour
TTITLE1=Toutes les femmes
TTITLE2=Envie de toi
TTITLE3=Un garçon t'a fait pleurer
TTITLE4=j'ai pleuré
TTITLE5=Si c'est ça la vie
TTITLE6=On se retrouve par hasard 
TTITLE7=Coeur romantique
TTITLE8=Macumba
TTITLE9=Dans les yeux d'Ophélie
TTITLE10=Lâche moi
TTITLE11=Comme une vague d'été
TTITLE12=Oh Carole
TTITLE13=Papa solitaire
TTITLE14=Combien de roses
TTITLE15=Un amour d'été
TTITLE16=L'Hidalgo
TTITLE17=Voulez vous danser grand-mère
TTITLE18=Donnez-moi des roses
TTITLE19=Reviens 
EXTD=
EXTT0=
EXTT1=
EXTT2=
EXTT3=
EXTT4=
EXTT5=
EXTT6=
EXTT7=
EXTT8=
EXTT9=
EXTT10=
EXTT11=
EXTT12=
EXTT13=
EXTT14=
EXTT15=
EXTT16=
EXTT17=
EXTT18=
EXTT19=
PLAYORDER=
